Format                           : AVI
Format/Info                      : Audio Video Interleave
File size                        : 1.11 GiB
Duration                         : 2h 6mn
Overall bit rate                 : 1 257 Kbps
Writing library                  : VirtualDub build 32839/release

Video
ID                               : 0
Format                           : MPEG-4 Visual
Format profile                   : Advanced Simple@L5
Format settings, BVOP            : Yes
Format settings, QPel            : No
Format settings, GMC             : No warppoints
Format settings, Matrix          : Custom
Codec ID                         : XVID
Codec ID/Hint                    : XviD
Duration                         : 2h 6mn
Bit rate                         : 800 Kbps
Width                            : 640 pixels
Height                           : 272 pixels
Display aspect ratio             : 2.35:1
Frame rate                       : 23.976 fps
Color space                      : YUV
Chroma subsampling               : 4:2:0
Bit depth                        : 8 bits
Scan type                        : Progressive
Bits/(Pixel*Frame)               : 0.192
Stream size                      : 725 MiB (64%)
Writing library                  : XviD 1.2.1 (UTC 2008-12-04)

Audio
ID                               : 1
Format                           : AC-3
Format/Info                      : Audio Coding 3
Mode extension                   : CM (complete main)
Codec ID                         : 2000
Duration                         : 2h 6mn
Bit rate mode                    : Constant
Bit rate                         : 448 Kbps
Channel(s)                       : 6 channels
Channel positions                : Front: L C R, Side: L R, LFE
Sampling rate                    : 48.0 KHz
Bit depth                        : 16 bits
Stream size                      : 406 MiB (36%)
Alignment                        : Split accross interleaves
Interleave, duration             : 42 ms (1.00 video frame)
Interleave, preload duration     : 500 ms




[url]http://www.imdb.com/title/tt1458175/[/url]







Storyline

Lara Brennan is arrested for murdering her boss whom she had an argument with. It seems she was seen leaving the scene of the crime and her fingerprints were on the murder weapon. Her husband, John would spend the next few years trying to get her released but there's no evidence that negates the evidence against her. And when the strain of being separated from her family especially her son gets to her, John decides to break her out. So he does a lot of research to find a way.

Users: 7.3/10 (7,188 votes) 69 reviews | Critics: 144 reviews Metascore: 52/100 (based on 35 reviews from Metacritic.com)


Director:
Paul Haggis
Writers:
Paul Haggis (screenplay), Fred Cavayé (screenplay), and 1 more credit »
Stars:
Russell Crowe, Elizabeth Banks and Liam Neeso





[url]http://img42.imageshack.us/img42/1290/vlcsnap2011022204h22m19.png[/url]

[url]http://img413.imageshack.us/img413/1368/vlcsnap2011022204h23m02.png[/url]

[url]http://img204.imageshack.us/img204/2286/vlcsnap2011022204h22m52.png[/url]







Greetz to Imagine ,Flawl3ss ,Santi ,Vision ,Kingdom,BDK,TOXiC,iNK,THC,Ez,Rx,





